<svg xmlns="http://www.w3.org/2000/svg" height="24" viewBox="0 -960 960 960" width="24"><path d="M32.587-189v-616.5H120V-400h323.587v-325.5H760q69.058 0 118.236 49.177 49.177 49.178 49.177 118.236V-189H840v-120H120v120H32.587Zm249.382-249.087q-51.617 0-87.75-36.132-36.132-36.133-36.132-87.75 0-51.618 36.132-87.575 36.133-35.956 87.75-35.956 51.618 0 87.575 35.956 35.956 35.957 35.956 87.575 0 51.617-35.956 87.75-35.957 36.132-87.575 36.132ZM531-400h309v-158.087q0-33-23.5-56.5t-56.5-23.5H531V-400ZM281.913-521.913q17 0 28.5-11.5t11.5-28.5q0-17-11.5-28.5t-28.5-11.5q-17 0-28.5 11.5t-11.5 28.5q0 17 11.5 28.5t28.5 11.5Zm0 0q-17 0-28.5-11.5t-11.5-28.5q0-17 11.5-28.5t28.5-11.5q17 0 28.5 11.5t11.5 28.5q0 17-11.5 28.5t-28.5 11.5ZM531-638.087h229q33 0 56.5 23.5t23.5 56.5V-400H531v-238.087Z"/></svg>